<svg xmlns="http://www.w3.org/2000/svg" viewBox="0 0 214.25 278.3"><defs><style>.cls-1{fill:#fff;}</style></defs><g id="Layer_2" data-name="Layer 2"><g id="Layer_1-2" data-name="Layer 1"><path d="M194.75,196.16a11.68,11.68,0,0,0-1.13,1.91c-3.19,8.94-5.93,18.08-9.65,26.79-2.45,5.73-6.14,11-9.58,16.24-3.17,4.85-6.63,9.51-10.17,14.1-5.76,7.45-13.71,12-21.81,16.48-6.52,3.59-13.48,5.16-20.71,6.1-14.21,1.85-27.43-1.45-40.27-7.36-6-2.78-10.7-7.2-15.83-11.09a129.34,129.34,0,0,1-20.85-19.65,77.79,77.79,0,0,1-15.2-28.37,4.4,4.4,0,0,0-1.85-2.14c-9.41-5.85-16.17-13.48-17.92-24.92a24.3,24.3,0,0,0-3.23-8.51A44.83,44.83,0,0,1,0,151.36a11.82,11.82,0,0,1,1.57-5.28,5.94,5.94,0,0,1,7.36-2.79,11.75,11.75,0,0,0,2.27.43,26,26,0,0,0,0-4.05c-1.6-10.17-3.16-20.34-5-30.47A137.8,137.8,0,0,1,4,83.72a60.86,60.86,0,0,1,6.22-26.19c2-4.26,4.22-8.45,6.13-12.76,1-2.16,1.42-4.55,2.19-6.81a6.6,6.6,0,0,1,3.94-4.34,7.24,7.24,0,0,0,4.77-5.55c.25-1.24.86-2.39,1.21-3.61C30.25,18.11,34.93,15.1,41,14c2.15-.37,4.46.34,6.69.27a19.05,19.05,0,0,0,5-.84C61.44,10.8,70.11,8,78.82,5.33c4.69-1.45,9.38-3,14.16-4.1,10.87-2.53,21.35-1,31.54,3.37,5.55,2.4,11.23,4.55,16.89,6.69a14.07,14.07,0,0,0,9.7.07c4.56-1.55,8.75-.59,12.88,1.58a40.57,40.57,0,0,1,14.07,12.52c5.65,7.86,12.35,14.76,18.9,21.8,4.37,4.7,6.46,10.23,7.12,16.59.62,6,2.26,11.9,2.75,17.91.55,6.7.44,13.47.37,20.2,0,3.66-.59,7.31-.93,11-.79,8.25-1.59,16.49-2.4,24.9,2.81-1,5.18.24,7.13,2.37s2.57,4.58,3,7.34c.74,4.46-.59,8.57-1.42,12.8-.67,3.36-1.07,6.77-1.86,10.1a24.49,24.49,0,0,1-2.49,7.09c-3,4.86-6.16,9.56-8,15.07-.56,1.68-2.22,3.11-3.63,4.37-.87.77-1.45.37-1.92-.83a15.65,15.65,0,0,0,4.56-6.44c1.29-3.32,3.2-6.4,4.81-9.6s3.32-6.33,4.7-9.61c.55-1.32.17-3,.47-4.45.87-4.31,2.13-8.55,2.73-12.89s.34-8.93-3.45-12.23c-2-1.74-3.34-1.54-5.33.21-3.66,3.23-4,7.84-4.48,12s.19,8.59.61,12.87.21,8-3,11.14c-.46.44-1.62.89-1.83.69a3.12,3.12,0,0,1-.86-2.07c0-2.55.34-5.09.37-7.64,0-1.85-.42-3.71-.34-5.55.15-3.36.73-6.71.78-10.07a118.84,118.84,0,0,0-.47-11.93c-.16-1.7-.53-3.91-1.67-4.88-2.17-1.85-4.94-3-7.51-4.35a1.75,1.75,0,0,0-1.58.14,13.92,13.92,0,0,0-4.09,6.83,83.22,83.22,0,0,1-3.82,12.75,42.14,42.14,0,0,1-6,10c-4,4.92-9.77,6.53-15.82,7.29-11.9,1.49-25-3.13-30.5-15.05-1.88-4.09-3.24-8.43-4.81-12.67-1.22-3.28-2.87-4.75-5.54-4.82s-4.6,1.34-6,4.61c-1.8,4.23-3.39,8.57-5.5,12.63A26.9,26.9,0,0,1,88.55,165.3a38,38,0,0,1-21.62,3.14c-9.21-1.2-16.47-5.51-20.1-14.42a92,92,0,0,1-4.58-14.37c-.88-3.94-1.49-7.72-4.73-10.61-.93-.83-1.53-1.32-2.61-.88-3.94,1.59-7.92,3.1-11.75,4.92a4.91,4.91,0,0,0-2.92,5.12c.31,5.1.23,10.22.5,15.33.34,6.2.94,12.39,1.27,18.59a13.86,13.86,0,0,1-.8,4.37c-.13.42-1,.62-2,1.23a30.76,30.76,0,0,0,.45-3.1c0-1.8.66-4.05-.18-5.29-1.9-2.83-1.63-5.91-1.8-8.85a19.11,19.11,0,0,0-6.52-13.59c-1.69-1.54-3.65-2.42-5.74-1.44-2.27,1.06-3.2,3.16-3.29,5.73a42.67,42.67,0,0,0,6.42,23.74,26.51,26.51,0,0,1,3.06,8.55c1.9,10.38,7.56,17.93,16.58,23.28a14.9,14.9,0,0,1-.19-2.57,8.45,8.45,0,0,1,.7-2c.37.54,1,1,1.09,1.61a86.12,86.12,0,0,0,8.6,23.05C47.69,243.16,62,254.7,76.83,265.21c10.76,7.6,23.59,11.05,36.91,11.11a69.4,69.4,0,0,0,15.94-2.07c9.75-2.25,18.24-7.35,25.91-13.55,9.5-7.7,15.44-18.41,22.15-28.36,5.83-8.63,8.46-18.78,11.84-28.54,1.65-4.78,3.51-9.5,5.43-14.19.38-.93.88-2.56,2.51-1.73.19.1-.38,1.85-.71,2.8C196.17,192.52,195.44,194.34,194.75,196.16Zm-3-66.89c-.34-2.54-.43-4.58-.89-6.53-2.41-10.17-4.58-20.4-7.47-30.43a156.79,156.79,0,0,0-13.71-33.42,4.22,4.22,0,0,0-1.38-1.71c-3.15-1.69-6.22-3.76-9.6-4.75-5.78-1.69-11.8-2.52-17.65-4a159.14,159.14,0,0,0-40-5c-6.94,0-13.86,1.14-20.8,1.69a74.89,74.89,0,0,0-23.34,6.06,13,13,0,0,0-6.77,6.59q-9.75,19.91-19.5,39.8a25.86,25.86,0,0,0-1.74,4.58c-1.5,5.55-2.49,11.26-5.73,16.2-2,3.09-2.08,6.59-2.34,10.4,3.23-1.52,6.36-2.56,9-4.32a33.54,33.54,0,0,1,20.9-5.51,9,9,0,0,0,4.44-1.24,33.43,33.43,0,0,1,14-3.71c6.8-.41,13.45.74,20,2.25,3.78.87,3.76.93,4,4.67a1.55,1.55,0,0,0,.21.44c2.29.61,4.64,1.14,6.92,1.86a42.19,42.19,0,0,0,24.28.77c1.44-.4,2.35-.79,2-2.49a7.66,7.66,0,0,1,0-2c.18-2,1-3.47,3.16-3.69,3.58-.38,7.17-.57,10.74-.95,9.66-1.05,19.18-.43,27.76,4.4A31.42,31.42,0,0,0,182,122.92a3.4,3.4,0,0,1,1.66.45C186.29,125.22,188.84,127.15,191.71,129.27ZM77.43,125.94c-4.36.3-7.29.72-10.2.66-5.59-.14-10.87,1.18-16.11,2.88-1.83.59-3,1.58-2.77,3.73.7,5.74,1,11.55,2.15,17.22,1.59,8.17,6.68,13.1,15.08,14.3a30.22,30.22,0,0,0,4,.29c4,0,8.07.65,11.84-.19,8.1-1.81,14.36-6.11,16.13-15a7.8,7.8,0,0,1,1.92-4c2.45-2.39,3.2-5.37,3.7-8.52a9.57,9.57,0,0,0-6.94-10.53,3.68,3.68,0,0,0-1.46.13,11.65,11.65,0,0,1-3.11.61C86.47,127,81.27,126.38,77.43,125.94ZM151,124.68c-4.55.35-9.29.51-14,1.14a75.42,75.42,0,0,0-10.69,2.41,5.33,5.33,0,0,0-3.76,4.68,19.29,19.29,0,0,0,2.36,12.84c.9,1.59,2,3.42,2,5.15,0,4.92,3.25,7.58,6.53,10.25,6.42,5.22,13.84,5,21.48,4,6.25-.87,11.1-3.81,14.21-9.26a36.38,36.38,0,0,0,4.51-19.32c-.21-7.16-2.39-9.48-9.42-10.67C159.9,125.16,155.51,125.07,151,124.68Z"/><path class="cls-1" d="M194.75,196.16c.69-1.82,1.42-3.64,2.06-5.48.33-1,.9-2.7.71-2.8-1.63-.83-2.13.8-2.51,1.73-1.92,4.69-3.78,9.41-5.43,14.19-3.38,9.76-6,19.91-11.84,28.54C171,242.29,165.09,253,155.59,260.7c-7.67,6.2-16.16,11.3-25.91,13.55a69.4,69.4,0,0,1-15.94,2.07c-13.32-.06-26.15-3.51-36.91-11.11-14.87-10.51-29.14-22-38.42-38.34a86.12,86.12,0,0,1-8.6-23.05c-.14-.59-.72-1.07-1.09-1.61a8.45,8.45,0,0,0-.7,2,14.9,14.9,0,0,0,.19,2.57c-9-5.35-14.68-12.9-16.58-23.28a26.51,26.51,0,0,0-3.06-8.55,42.67,42.67,0,0,1-6.42-23.74c.09-2.57,1-4.67,3.29-5.73,2.09-1,4.05-.1,5.74,1.44a19.11,19.11,0,0,1,6.52,13.59c.17,2.94-.1,6,1.8,8.85.84,1.24.22,3.49.18,5.29a30.76,30.76,0,0,1-.45,3.1c1-.61,1.85-.81,2-1.23a13.86,13.86,0,0,0,.8-4.37c-.33-6.2-.93-12.39-1.27-18.59-.27-5.11-.19-10.23-.5-15.33a4.91,4.91,0,0,1,2.92-5.12c3.83-1.82,7.81-3.33,11.75-4.92,1.08-.44,1.68.05,2.61.88,3.24,2.89,3.85,6.67,4.73,10.61A92,92,0,0,0,46.83,154c3.63,8.91,10.89,13.22,20.1,14.42a38,38,0,0,0,21.62-3.14,26.9,26.9,0,0,0,12.64-12.17c2.11-4.06,3.7-8.4,5.5-12.63,1.39-3.27,3.22-4.7,6-4.61s4.32,1.54,5.54,4.82c1.57,4.24,2.93,8.58,4.81,12.67,5.46,11.92,18.6,16.54,30.5,15.05,6.05-.76,11.85-2.37,15.82-7.29a42.14,42.14,0,0,0,6-10,83.22,83.22,0,0,0,3.82-12.75,13.92,13.92,0,0,1,4.09-6.83,1.75,1.75,0,0,1,1.58-.14c2.57,1.35,5.34,2.5,7.51,4.35,1.14,1,1.51,3.18,1.67,4.88a118.84,118.84,0,0,1,.47,11.93c-.05,3.36-.63,6.71-.78,10.07-.08,1.84.36,3.7.34,5.55,0,2.55-.34,5.09-.37,7.64a3.12,3.12,0,0,0,.86,2.07c.21.2,1.37-.25,1.83-.69,3.2-3.1,3.4-7,3-11.14s-1.11-8.66-.61-12.87.82-8.82,4.48-12c2-1.75,3.33-2,5.33-.21,3.79,3.3,4.08,7.77,3.45,12.23s-1.86,8.58-2.73,12.89c-.3,1.46.08,3.13-.47,4.45-1.38,3.28-3.09,6.42-4.7,9.61s-3.52,6.28-4.81,9.6a15.65,15.65,0,0,1-4.56,6.44Zm-81.69,7.28c-1.48-1.1-2.76-2.14-4.14-3.05-2.8-1.84-5.67-3-9.26-2.35-3.15.61-5.2,2.56-7.29,4.59-2.84,2.78-6,4.62-10.15,4.6a6.1,6.1,0,0,0-5.3,3c-2.94,4.8-5.72,9.7-8.47,14.62a2.43,2.43,0,0,0,0,2.23,2.72,2.72,0,0,0,2.26.31,29.12,29.12,0,0,0,5.48-1.9c2.4-1.2,4.68-2.65,7-4.08,2.72-1.69,4.2-1.52,6.13.86a8.94,8.94,0,0,0,1.62,1.87c6.3,4.25,13.32,4.87,20.66,4.11,3-.31,6.07-.2,9.11-.28,2.48-.08,5,.18,7.41-.31,4.29-.88,8.48-2.24,12.73-3.34a3.12,3.12,0,0,1,2.09,0c3.28,2,6.85,2,10.48,1.89,1.91-.06,3.13-1.38,2.55-3.17-1.24-3.84-2.54-7.66-4-11.41-1.85-4.59-5.74-6.37-10.37-6.64a13.67,13.67,0,0,1-8.95-3.58,12.73,12.73,0,0,0-4.05-2.74C123.86,197,116.39,199.33,113.06,203.44ZM89.44,186.05a16.07,16.07,0,0,0,1.78,3.1c.4.46,1.52.31,2.32.43-.07-.73.15-1.76-.26-2.15-1.34-1.31-1.17-2.71-.5-4.12s1.62-2.87,2.45-4.29a7.53,7.53,0,0,0,1.1-1.93,2.11,2.11,0,0,0-.49-1.71,1.63,1.63,0,0,0-1.56.26A18.55,18.55,0,0,0,89.44,186.05Zm49.13,1c0-3.55-1.91-6.31-3.55-9.13a1.84,1.84,0,0,0-1.74-.41c-.37.17-.56,1.08-.55,1.65a3.31,3.31,0,0,0,.63,1.42c1.61,2.81,3.17,5.61,2,9.08-.12.35.52,1.33,1,1.43a1.78,1.78,0,0,0,1.55-.82A18,18,0,0,0,138.57,187Zm-22.33,50.31,0-.28a25.58,25.58,0,0,0,3.16,0c.45-.05.84-.55,1.26-.84-.44-.3-.85-.81-1.32-.87-3.46-.5-6.93-.95-10.41-1.32-.55-.06-1.15.4-1.73.62.43.51.78,1.36,1.29,1.47C111.08,236.59,113.67,236.92,116.24,237.32Zm-13.76-47.79A17.65,17.65,0,0,0,99,191.65c-.53.51-.44,1.66-.63,2.52.79-.13,1.76,0,2.35-.44,1-.72,1.72-1.39,2.9-.36a1.48,1.48,0,0,0,1.37-.17c.25-.54.44-1.49.15-1.82A14.54,14.54,0,0,0,102.48,189.53Zm26.61,3.23.15.64c.47-.27,1.28-.5,1.33-.84a2.25,2.25,0,0,0-.58-1.73c-1.38-1.37-5.25-1.57-6.74-.37a2,2,0,0,0-.61,1.5c0,.28.7.75,1.1.76C125.52,192.81,127.31,192.76,129.09,192.76Z"/><path class="cls-1" d="M191.71,129.27c-2.87-2.12-5.42-4.05-8-5.9a3.4,3.4,0,0,0-1.66-.45,31.42,31.42,0,0,1-13.72-3.73c-8.58-4.83-18.1-5.45-27.76-4.4-3.57.38-7.16.57-10.74.95-2.13.22-3,1.73-3.16,3.69a7.66,7.66,0,0,0,0,2c.31,1.7-.6,2.09-2,2.49a42.19,42.19,0,0,1-24.28-.77c-2.28-.72-4.63-1.25-6.92-1.86a1.55,1.55,0,0,1-.21-.44c-.23-3.74-.21-3.8-4-4.67-6.58-1.51-13.23-2.66-20-2.25a33.43,33.43,0,0,0-14,3.71,9,9,0,0,1-4.44,1.24,33.54,33.54,0,0,0-20.9,5.51c-2.65,1.76-5.78,2.8-9,4.32.26-3.81.32-7.31,2.34-10.4,3.24-4.94,4.23-10.65,5.73-16.2a25.86,25.86,0,0,1,1.74-4.58q9.7-19.92,19.5-39.8a13,13,0,0,1,6.77-6.59,74.89,74.89,0,0,1,23.34-6.06c6.94-.55,13.86-1.67,20.8-1.69a159.14,159.14,0,0,1,40,5c5.85,1.48,11.87,2.31,17.65,4,3.38,1,6.45,3.06,9.6,4.75a4.22,4.22,0,0,1,1.38,1.71,156.79,156.79,0,0,1,13.71,33.42c2.89,10,5.06,20.26,7.47,30.43C191.28,124.69,191.37,126.73,191.71,129.27Z"/><path class="cls-1" d="M77.43,125.94c3.84.44,9,1.08,14.26,1.57a11.65,11.65,0,0,0,3.11-.61,3.68,3.68,0,0,1,1.46-.13,9.57,9.57,0,0,1,6.94,10.53c-.5,3.15-1.25,6.13-3.7,8.52a7.8,7.8,0,0,0-1.92,4c-1.77,8.93-8,13.23-16.13,15-3.77.84-7.88.21-11.84.19a30.22,30.22,0,0,1-4-.29c-8.4-1.2-13.49-6.13-15.08-14.3-1.1-5.67-1.45-11.48-2.15-17.22-.26-2.15.94-3.14,2.77-3.73,5.24-1.7,10.52-3,16.11-2.88C70.14,126.66,73.07,126.24,77.43,125.94Zm4.19,9.71c1.36.78,2.5,1.35,3.54,2,1.62,1.1,3.13,2.38,4.79,3.41a5.74,5.74,0,0,0,2.21.34c-.24-.7-.27-1.66-.75-2.08-4.56-3.9-9.41-7.12-15.88-6.05a7.82,7.82,0,0,1-1.81,0c-7-.48-12.24,3.51-17.59,7.12-.34.22-.44,1.07-.33,1.55.06.23,1,.5,1.33.36A17.07,17.07,0,0,0,59.67,141l7.77-4.78c1.06,6.5,2.94,8.78,6.78,8.6C79.15,144.54,81,142.35,81.62,135.65Zm-1.57-7c-3.13.36-6.24.95-9.37,1a27.26,27.26,0,0,0-18.22,7.61c-.4.36-.41,1.15-.6,1.74.61.06,1.38.39,1.81.14,1.55-.9,2.93-2.08,4.47-3,1.9-1.15,3.78-2.68,5.86-3.09,4.75-.94,9.66-1,14.42-2,4.29-.83,7.37,1,10.47,3.41a8,8,0,0,0,2.25.81c-.28-.89-.27-2.11-.87-2.63C87.36,130.22,84.18,128.22,80.05,128.65Z"/><path class="cls-1" d="M151,124.68c4.55.39,8.94.48,13.22,1.21,7,1.19,9.21,3.51,9.42,10.67a36.38,36.38,0,0,1-4.51,19.32c-3.11,5.45-8,8.39-14.21,9.26-7.64,1.06-15.06,1.23-21.48-4-3.28-2.67-6.48-5.33-6.53-10.25,0-1.73-1.07-3.56-2-5.15a19.29,19.29,0,0,1-2.36-12.84,5.33,5.33,0,0,1,3.76-4.68A75.42,75.42,0,0,1,137,125.82C141.67,125.19,146.41,125,151,124.68Zm-9.26,10.69.54.7c-.69,3.1-.42,6,2.47,7.8a7.17,7.17,0,0,0,7.7,0c3.27-1.8,3.74-4.8,2.71-8.41a27.4,27.4,0,0,1,10.13,5.83c.49.41,1.41.32,2.14.47-.19-.72-.15-1.69-.6-2.12-6.27-5.89-13.72-8.3-22.17-6.8-3.4.61-6.65,2-10.25,3.2l2.67-3.88a5.92,5.92,0,0,1,5.57-2.75c3.82.22,7.71-.06,11.46.56,5.23.86,10.9,1,14.71,5.74.33.4,1.29.29,2,.42-.1-.67,0-1.52-.34-2a12.54,12.54,0,0,0-7.67-4.81c-4.34-.79-8.67-1.78-13-2.14a47.76,47.76,0,0,0-10.54.47c-3.26.46-8.42,8.53-8,12,.05.4.3,1,.58,1.09a2.1,2.1,0,0,0,1.4-.28C136,138.76,138.84,137.05,141.7,135.37Z"/><path d="M113.06,203.44c3.33-4.11,10.8-6.48,15.48-4.8a12.73,12.73,0,0,1,4.05,2.74,13.67,13.67,0,0,0,8.95,3.58c4.63.27,8.52,2,10.37,6.64,1.5,3.75,2.8,7.57,4,11.41.58,1.79-.64,3.11-2.55,3.17-3.63.12-7.2.08-10.48-1.89a3.12,3.12,0,0,0-2.09,0c-4.25,1.1-8.44,2.46-12.73,3.34-2.39.49-4.93.23-7.41.31-3,.08-6.09,0-9.11.28-7.34.76-14.36.14-20.66-4.11a8.94,8.94,0,0,1-1.62-1.87c-1.93-2.38-3.41-2.55-6.13-.86-2.28,1.43-4.56,2.88-7,4.08a29.12,29.12,0,0,1-5.48,1.9,2.72,2.72,0,0,1-2.26-.31,2.43,2.43,0,0,1,0-2.23c2.75-4.92,5.53-9.82,8.47-14.62a6.1,6.1,0,0,1,5.3-3c4.13,0,7.31-1.82,10.15-4.6,2.09-2,4.14-4,7.29-4.59,3.59-.69,6.46.51,9.26,2.35C110.3,201.3,111.58,202.34,113.06,203.44Zm22.62,20.22c-.75-.36-1.05-.54-1.38-.65-4.57-1.65-9.23-.91-13.77-.15a25.76,25.76,0,0,1-14.31-1.13,15.26,15.26,0,0,0-6.12-.9,72.4,72.4,0,0,0-8.27,1.36,36,36,0,0,0,4.26,2.59c5.76,2.5,11.73,2.35,17.79,1.3a17.26,17.26,0,0,1,5.59-.22,31,31,0,0,0,14-1.09A15.63,15.63,0,0,0,135.68,223.66Zm-38-5c4.69-1.32,8.81,1.15,13.21,2.15a23.38,23.38,0,0,0,7.79.15c6.49-.8,12.94-1.59,19.23,1.05a13.31,13.31,0,0,0,2.09.43c-1.31-1.6-2.26-2.84-3.31-4a1.93,1.93,0,0,0-1.27-.62c-2.39,0-4.79.14-7.19.22a30,30,0,0,1-13.6-2.25,7.83,7.83,0,0,0-6.92,0C104.48,217.08,101,217.71,97.64,218.65Z"/><path d="M89.44,186.05a18.55,18.55,0,0,1,4.84-10.41,1.63,1.63,0,0,1,1.56-.26,2.11,2.11,0,0,1,.49,1.71,7.53,7.53,0,0,1-1.1,1.93c-.83,1.42-1.74,2.81-2.45,4.29s-.84,2.81.5,4.12c.41.39.19,1.42.26,2.15-.8-.12-1.92,0-2.32-.43A16.07,16.07,0,0,1,89.44,186.05Z"/><path d="M138.57,187a18,18,0,0,1-.75,3.22,1.78,1.78,0,0,1-1.55.82c-.43-.1-1.07-1.08-1-1.43,1.21-3.47-.35-6.27-2-9.08a3.31,3.31,0,0,1-.63-1.42c0-.57.18-1.48.55-1.65a1.84,1.84,0,0,1,1.74.41C136.66,180.7,138.58,183.46,138.57,187Z"/><path d="M116.24,237.32c-2.57-.4-5.16-.73-7.71-1.26-.51-.11-.86-1-1.29-1.47.58-.22,1.18-.68,1.73-.62,3.48.37,7,.82,10.41,1.32.47.06.88.57,1.32.87-.42.29-.81.79-1.26.84a25.58,25.58,0,0,1-3.16,0Z"/><path d="M102.48,189.53a14.54,14.54,0,0,1,2.66,1.85c.29.33.1,1.28-.15,1.82a1.48,1.48,0,0,1-1.37.17c-1.18-1-1.92-.36-2.9.36-.59.42-1.56.31-2.35.44.19-.86.1-2,.63-2.52A17.65,17.65,0,0,1,102.48,189.53Z"/><path d="M129.09,192.76c-1.78,0-3.57.05-5.35,0-.4,0-1.09-.48-1.1-.76a2,2,0,0,1,.61-1.5c1.49-1.2,5.36-1,6.74.37a2.25,2.25,0,0,1,.58,1.73c0,.34-.86.57-1.33.84Z"/><path d="M81.62,135.65c-.62,6.7-2.47,8.89-7.4,9.12-3.84.18-5.72-2.1-6.78-8.6L59.67,141a17.07,17.07,0,0,1-2.54,1.41c-.36.14-1.27-.13-1.33-.36-.11-.48,0-1.33.33-1.55,5.35-3.61,10.58-7.6,17.59-7.12a7.82,7.82,0,0,0,1.81,0c6.47-1.07,11.32,2.15,15.88,6.05.48.42.51,1.38.75,2.08a5.74,5.74,0,0,1-2.21-.34c-1.66-1-3.17-2.31-4.79-3.41C84.12,137,83,136.43,81.62,135.65Z"/><path d="M80.05,128.65c4.13-.43,7.31,1.57,10.22,4,.6.52.59,1.74.87,2.63a8,8,0,0,1-2.25-.81c-3.1-2.37-6.18-4.24-10.47-3.41-4.76.92-9.67,1-14.42,2-2.08.41-4,1.94-5.86,3.09-1.54.92-2.92,2.1-4.47,3-.43.25-1.2-.08-1.81-.14.19-.59.2-1.38.6-1.74a27.26,27.26,0,0,1,18.22-7.61C73.81,129.6,76.92,129,80.05,128.65Z"/><path d="M141.7,135.37c-2.86,1.68-5.71,3.39-8.58,5a2.1,2.1,0,0,1-1.4.28c-.28-.08-.53-.69-.58-1.09-.42-3.45,4.74-11.52,8-12a47.76,47.76,0,0,1,10.54-.47c4.38.36,8.71,1.35,13,2.14a12.54,12.54,0,0,1,7.67,4.81c.36.47.24,1.32.34,2-.67-.13-1.63,0-2-.42-3.81-4.76-9.48-4.88-14.71-5.74-3.75-.62-7.64-.34-11.46-.56a5.92,5.92,0,0,0-5.57,2.75L134.37,136c3.6-1.15,6.85-2.59,10.25-3.2,8.45-1.5,15.9.91,22.17,6.8.45.43.41,1.4.6,2.12-.73-.15-1.65-.06-2.14-.47a27.4,27.4,0,0,0-10.13-5.83c1,3.61.56,6.61-2.71,8.41a7.17,7.17,0,0,1-7.7,0c-2.89-1.85-3.16-4.7-2.47-7.8Z"/><path class="cls-1" d="M135.68,223.66a15.63,15.63,0,0,1-2.24,1.11,31,31,0,0,1-14,1.09,17.26,17.26,0,0,0-5.59.22c-6.06,1-12,1.2-17.79-1.3a36,36,0,0,1-4.26-2.59,72.4,72.4,0,0,1,8.27-1.36,15.26,15.26,0,0,1,6.12.9,25.76,25.76,0,0,0,14.31,1.13c4.54-.76,9.2-1.5,13.77.15C134.63,223.12,134.93,223.3,135.68,223.66Z"/><path class="cls-1" d="M97.64,218.65c3.36-.94,6.84-1.57,10-2.91a7.83,7.83,0,0,1,6.92,0,30,30,0,0,0,13.6,2.25c2.4-.08,4.8-.2,7.19-.22a1.93,1.93,0,0,1,1.27.62c1,1.16,2,2.4,3.31,4a13.31,13.31,0,0,1-2.09-.43c-6.29-2.64-12.74-1.85-19.23-1.05a23.38,23.38,0,0,1-7.79-.15C106.45,219.8,102.33,217.33,97.64,218.65Z"/></g></g></svg>